<svg width="38" height="50" viewBox="0 0 38 50" fill="none" xmlns="http://www.w3.org/2000/svg">
<path d="M14.7089 37.0571C14.7089 39.234 16.4155 41 18.5201 41C20.6251 41 22.3314 39.234 22.3314 37.0571C22.3314 33.7867 18.5201 29.134 18.5201 29.134C18.5201 29.134 14.7089 33.7867 14.7089 37.0571Z" fill="#5A287F" stroke="white" stroke-width="0.00064"/>
<path d="M28.3655 26.7482C25.3592 25.7376 19.9043 28.0499 19.9043 28.0499C19.9043 28.0499 23.0037 33.2376 26.0101 34.2483C28.0114 34.9211 30.1621 33.7876 30.8126 31.7168C31.463 29.6456 30.3668 27.4209 28.3655 26.7482Z" fill="#FF0000" stroke="white" stroke-width="0.00064"/>
<path d="M26.9202 22.2608C28.1571 20.4995 27.7797 18.033 26.0771 16.7532C24.374 15.4732 21.9902 15.8643 20.7534 17.6255C18.8953 20.2712 19.3354 26.353 19.3354 26.353C19.3354 26.353 25.0621 24.9064 26.9202 22.2608Z" fill="#DC911B" stroke="white" stroke-width="0.00064"/>
<path d="M17.5997 26.3883C17.5997 26.3883 18.0395 20.3067 16.1816 17.6609C14.9447 15.8995 12.5607 15.5087 10.858 16.7884C9.15503 18.0685 8.77803 20.5349 10.0147 22.2962C11.8727 24.9418 17.5997 26.3883 17.5997 26.3883Z" fill="#6AA842" stroke="white" stroke-width="0.00064"/>
<path d="M8.63462 26.8053C6.63315 27.4781 5.53721 29.7031 6.18741 31.7738C6.83794 33.845 8.9887 34.9781 10.99 34.3055C13.9963 33.295 17.0958 28.107 17.0958 28.107C17.0958 28.107 11.6409 25.7949 8.63462 26.8053Z" fill="#009DE0" stroke="white" stroke-width="0.00064"/>
<path d="M1.26333 50C0.578334 50 0 49.43 0 48.7567V1.26333C0 0.566666 0.565001 0 1.26333 0H25.7733C26.1033 0 26.43 0.14 26.6833 0.393333L37.4317 11.1617C37.6817 11.3783 37.8233 11.7017 37.8233 12.0533V48.755C37.8233 49.43 37.245 50 36.56 50H1.26333ZM2.52833 47.4933H35.315V13.315H25.7717C25.0733 13.315 24.5067 12.7483 24.5067 12.0533V2.50667H2.52833V47.4933ZM27.0367 10.8083H33.5367L27.0367 4.285V10.8083Z" fill="white"/>
</svg>
